<?xml version="1.0" encoding="UTF-8"?>
<svg xmlns="http://www.w3.org/2000/svg"
     version="1.2"
     baseProfile="tiny"
     viewBox="0 0 1024 1024">
  <rect width="100%" height="100%" fill="#FFFFFF" />
<g transform="translate(0.000000,1024.000000) scale(0.100000,-0.100000)"
fill="#E30613" stroke="none">
<path d="M0 5120 l0 -5120 5120 0 5120 0 0 5120 0 5120 -5120 0 -5120 0 0
-5120z m5399 2306 c523 -292 575 -322 578 -333 2 -6 -5 -14 -17 -18 -15 -5
-66 19 -188 88 -367 208 -640 357 -652 357 -13 0 -28 -8 -420 -228 -151 -85
-349 -197 -440 -248 -91 -50 -273 -153 -405 -227 l-240 -135 -7 -73 c-10 -108
-8 -1840 2 -1865 5 -12 35 -36 67 -54 32 -18 229 -129 438 -245 430 -240 788
-440 918 -513 l88 -49 342 192 c188 105 466 260 617 345 151 84 329 184 395
221 66 37 128 71 138 75 16 6 17 57 15 945 -2 517 -2 939 -1 939 1 0 14 -5 28
-12 l25 -11 -2 -939 -3 -939 -615 -342 c-338 -188 -688 -384 -778 -435 l-162
-92 -148 83 c-81 46 -232 131 -337 189 -104 59 -359 200 -565 315 -206 115
-405 226 -442 247 l-68 37 0 1002 0 1002 668 374 c367 206 717 403 777 438 61
34 112 63 114 63 2 0 128 -69 280 -154z m-200 -157 c435 -237 695 -389 684
-399 -4 -5 -63 -38 -130 -75 -68 -37 -123 -70 -123 -74 0 -4 79 -51 175 -105
96 -54 172 -102 170 -107 -6 -8 -126 -77 -480 -274 -126 -70 -261 -145 -298
-166 -38 -22 -74 -39 -80 -39 -6 0 -79 38 -161 84 -986 548 -986 547 -986 555
0 3 101 61 223 129 122 67 377 209 567 316 190 107 349 194 354 195 5 1 43
-18 85 -40z m1481 -309 c0 -93 -3 -170 -6 -170 -3 0 -25 14 -49 30 l-44 30
-153 -88 c-84 -49 -199 -114 -254 -145 l-102 -57 -136 77 c-75 42 -136 79
-136 82 0 3 39 28 88 55 48 28 128 73 177 101 50 28 123 69 162 91 40 21 73
42 73 45 0 3 -26 24 -57 45 l-58 39 80 7 c96 9 314 24 373 26 l42 2 0 -170z
m-2534 -492 l184 -102 2 -284 3 -284 95 -55 c52 -30 132 -75 178 -100 l82 -45
0 282 c0 155 4 280 8 278 4 -1 89 -47 189 -102 l181 -98 5 -87 c8 -126 9
-1451 1 -1451 -3 0 -91 46 -195 101 l-189 102 0 281 -1 281 -77 43 c-42 23
-122 67 -177 97 -54 30 -100 55 -102 55 -2 0 -3 -124 -3 -275 0 -151 -3 -275
-6 -275 -4 0 -66 33 -138 74 -72 40 -155 86 -183 101 l-53 28 0 769 c0 422 3
768 6 768 3 0 88 -46 190 -102z m2075 -130 c108 -50 177 -138 215 -278 25 -92
25 -342 0 -460 -51 -238 -164 -442 -340 -615 -56 -55 -137 -123 -181 -151 -74
-48 -738 -414 -750 -414 -3 0 -5 344 -5 765 l0 766 28 15 c15 8 124 69 242
136 344 192 413 227 491 248 104 28 223 23 300 -12z m-2075 -1508 c743 -411
962 -530 974 -530 13 0 186 94 790 428 501 277 530 293 536 278 3 -7 4 -48 2
-91 l-3 -79 -210 -116 c-115 -64 -414 -230 -663 -369 l-454 -252 -111 62 c-62
34 -161 90 -222 124 -60 34 -238 133 -395 220 -157 87 -343 191 -415 231 -71
40 -142 80 -157 88 -27 15 -28 17 -28 107 0 71 3 90 13 86 7 -3 162 -87 343
-187z m25 -1485 c41 -15 109 -69 109 -87 0 -4 -18 -17 -41 -29 l-41 -20 -14
20 c-20 29 -80 43 -126 30 -73 -20 -106 -118 -65 -195 33 -64 143 -78 192 -24
17 19 18 19 56 -1 22 -10 39 -23 39 -28 0 -24 -81 -80 -133 -91 -183 -41 -327
138 -250 310 26 57 57 86 119 110 60 23 98 25 155 5z m3024 1 c42 -13 115 -68
115 -87 0 -4 -16 -17 -36 -28 l-37 -22 -22 21 c-50 47 -127 46 -175 -1 -98
-99 7 -268 133 -215 19 8 39 22 44 31 9 16 13 15 51 -4 23 -12 42 -25 42 -30
0 -5 -18 -25 -41 -44 -112 -96 -288 -57 -344 75 -22 53 -19 143 5 193 27 57
60 84 122 106 65 22 82 23 143 5z m378 3 c21 -5 51 -22 67 -37 l30 -27 -25
-28 -25 -29 -43 21 c-70 34 -127 25 -127 -20 0 -16 63 -49 93 -49 7 0 36 -11
63 -25 57 -28 74 -56 74 -116 0 -33 -7 -48 -33 -74 -68 -68 -191 -72 -274 -9
-39 29 -40 40 -11 71 27 29 29 29 74 -2 63 -43 152 -29 142 22 -2 12 -27 26
-79 44 -98 32 -125 50 -139 94 -38 114 77 202 213 164z m1030 0 c22 -6 55 -26
75 -45 l37 -34 -30 -25 c-37 -30 -38 -30 -76 -2 -37 27 -102 28 -141 3 -92
-60 -62 -221 46 -241 54 -11 110 13 114 48 3 26 2 27 -47 27 l-51 0 0 40 0 40
100 0 100 0 0 -72 c0 -71 0 -72 -43 -112 -89 -86 -212 -88 -303 -4 -33 31 -48
55 -60 96 -51 175 103 330 279 281z m-7023 -84 l0 -85 85 0 84 0 3 83 3 82 48
3 47 3 0 -216 0 -216 -47 3 -48 3 -3 83 -3 82 -84 0 -85 0 0 -85 0 -85 -44 0
-43 0 -6 133 c-3 72 -5 143 -3 157 2 14 4 51 5 83 l1 57 45 0 45 0 0 -85z
m658 43 l-3 -43 -102 -3 -103 -3 0 -39 0 -40 94 0 94 0 4 -41 c2 -22 2 -42 -1
-45 -2 -2 -46 -4 -96 -4 l-92 0 0 -40 0 -39 101 -3 101 -3 3 -42 3 -43 -150 0
-151 0 0 215 0 215 151 0 150 0 -3 -42z m162 -128 l0 -170 95 0 95 0 0 -45 0
-45 -139 0 -138 0 -7 107 c-4 58 -4 155 0 215 l7 108 43 0 44 0 0 -170z m279
20 c30 -82 55 -150 56 -150 1 0 26 68 56 150 l54 150 47 0 c32 0 48 -4 48 -12
0 -7 -35 -104 -77 -215 l-78 -203 -52 0 -51 0 -41 103 c-22 56 -55 145 -74
197 -19 52 -38 103 -42 113 -6 15 -1 17 47 17 l53 0 54 -150z m601 105 l0 -45
-100 0 -100 0 0 -40 0 -40 95 0 95 0 0 -45 0 -45 -96 0 -95 0 3 -42 3 -43 98
4 c66 2 97 0 98 -8 1 -6 2 -18 2 -26 0 -60 11 -56 -150 -53 l-148 3 -3 213 -3
212 151 0 150 0 0 -45z m388 -2 l3 -43 -65 0 -66 0 0 -170 0 -170 -50 0 -50 0
0 170 0 170 -60 0 -60 0 0 45 0 45 173 -2 172 -3 3 -42z m142 -168 l0 -215
-45 0 -45 0 0 215 0 215 45 0 45 0 0 -215z m914 204 c49 -14 122 -80 137 -126
6 -19 9 -63 7 -98 -5 -83 -38 -133 -109 -169 -47 -23 -64 -26 -161 -26 l-108
0 0 215 0 215 98 0 c53 0 114 -5 136 -11z m295 -64 c23 -41 46 -77 50 -79 4
-3 28 31 52 74 l44 80 53 0 c39 0 53 -3 49 -12 -2 -7 -37 -66 -76 -132 l-71
-119 0 -83 0 -84 -50 0 -50 0 0 86 0 86 -75 125 c-41 68 -75 126 -75 129 0 2
24 4 53 4 l53 0 43 -75z m471 -55 l85 -124 5 124 5 125 48 3 47 3 0 -215 0
-216 -47 0 -48 0 -67 103 c-37 56 -79 116 -93 132 l-24 30 -1 -132 0 -133 -45
0 -45 0 0 216 0 215 47 -3 48 -3 85 -125z m591 -70 c43 -107 82 -203 85 -212
5 -16 -2 -18 -49 -18 l-54 0 -12 40 -12 40 -90 0 -91 0 -15 -40 c-16 -39 -17
-40 -65 -40 -26 0 -48 4 -48 9 0 10 144 371 160 401 9 18 19 21 61 18 l50 -3
80 -195z m299 86 l61 -114 58 111 57 112 52 3 52 3 1 -178 c1 -98 2 -194 3
-213 1 -35 1 -35 -46 -38 l-47 -3 -3 126 -3 126 -45 -91 c-33 -67 -51 -92 -68
-97 -30 -7 -36 -1 -94 104 l-48 88 0 -127 0 -128 -50 0 -50 0 0 215 0 215 55
0 54 0 61 -114z m465 -101 l0 -210 -47 -3 -48 -3 0 216 0 216 48 -3 47 -3 0
-210z m1372 5 c46 -113 83 -208 83 -212 0 -5 -23 -8 -50 -8 -49 0 -50 1 -66
40 l-16 40 -89 0 -89 0 -16 -40 c-16 -39 -17 -40 -66 -40 -44 0 -49 2 -43 18
4 9 24 62 45 117 39 103 109 274 117 288 3 4 28 7 56 5 l51 -3 83 -205z m1492
-2395 c29 -69 85 -126 156 -156 30 -13 55 -27 55 -30 0 -3 -25 -16 -55 -28
-69 -29 -127 -87 -156 -156 -12 -30 -26 -55 -29 -55 -3 0 -17 25 -29 55 -29
69 -85 126 -156 156 -30 13 -55 27 -55 30 0 3 25 16 55 28 69 29 127 87 156
156 12 30 26 55 29 55 3 0 17 -25 29 -55z"/>
<path d="M5825 5908 c-16 -6 -85 -40 -152 -77 l-123 -66 0 -363 0 -363 142 73
c184 95 270 172 328 292 48 101 64 180 58 293 -8 158 -57 224 -168 222 -30 0
-68 -5 -85 -11z"/>
<path d="M4580 3135 l0 -125 61 0 c56 0 64 3 95 34 30 30 34 40 34 88 0 87
-45 128 -140 128 l-50 0 0 -125z"/>
<path d="M5924 3172 c-10 -31 -20 -63 -22 -69 -2 -9 12 -13 47 -13 28 0 51 1
51 3 0 4 -51 131 -54 134 -1 2 -11 -23 -22 -55z"/>
<path d="M8051 3161 c-11 -32 -21 -61 -21 -65 0 -3 23 -6 50 -6 28 0 50 4 50
10 0 12 -48 120 -53 120 -2 0 -14 -26 -26 -59z"/>
</g>
</svg>
